<mxfile host="app.diagrams.net" agent="Mozilla/5.0 (X11; Linux x86_64) AppleWebKit/537.36 (KHTML, like Gecko) Chrome/129.0.0.0 Safari/537.36" version="24.8.1">
  <diagram name="Page-1" id="mH5Nf-Nmjt8SLAs9AsV5">
    <mxGraphModel>
      <root>
        <mxCell id="0" />
        <mxCell id="1" parent="0" />
        <mxCell id="2" value="Key Activities" style="whiteSpace=wrap;strokeWidth=2;verticalAlign=top;" vertex="1" parent="1">
          <mxGeometry x="8" y="8" width="514" height="526" as="geometry" />
        </mxCell>
        <mxCell id="3" value="Make Payment (Students)" style="shape=hexagon;perimeter=hexagonPerimeter2;fixedSize=1;strokeWidth=2;whiteSpace=wrap;" vertex="1" parent="2">
          <mxGeometry x="181" y="46" width="216" height="32" as="geometry" />
        </mxCell>
        <mxCell id="4" value="Validate Payment (Banks/Payment Gateways)" style="shape=hexagon;perimeter=hexagonPerimeter2;fixedSize=1;strokeWidth=2;whiteSpace=wrap;" vertex="1" parent="2">
          <mxGeometry x="88" y="174" width="238" height="50" as="geometry" />
        </mxCell>
        <mxCell id="5" value="Generate Receipt (System)" style="shape=hexagon;perimeter=hexagonPerimeter2;fixedSize=1;strokeWidth=2;whiteSpace=wrap;" vertex="1" parent="2">
          <mxGeometry x="94" y="319" width="225" height="32" as="geometry" />
        </mxCell>
        <mxCell id="6" value="Store Payment Records (System)" style="shape=hexagon;perimeter=hexagonPerimeter2;fixedSize=1;strokeWidth=2;whiteSpace=wrap;" vertex="1" parent="2">
          <mxGeometry x="179" y="447" width="210" height="50" as="geometry" />
        </mxCell>
        <mxCell id="7" value="Payment Request" style="curved=1;startArrow=none;endArrow=block;exitX=0.31;exitY=0.98;entryX=0.39;entryY=-0.01;" edge="1" parent="2" source="3" target="4">
          <mxGeometry relative="1" as="geometry">
            <Array as="points">
              <mxPoint x="128" y="126" />
            </Array>
          </mxGeometry>
        </mxCell>
        <mxCell id="8" value="Validation Response" style="curved=1;startArrow=none;endArrow=block;exitX=0.62;exitY=-0.01;entryX=0.5;entryY=0.98;" edge="1" parent="2" source="4" target="3">
          <mxGeometry relative="1" as="geometry">
            <Array as="points">
              <mxPoint x="289" y="126" />
            </Array>
          </mxGeometry>
        </mxCell>
        <mxCell id="9" value="Validation Success" style="curved=1;startArrow=none;endArrow=block;exitX=0.5;exitY=0.98;entryX=0.5;entryY=0;" edge="1" parent="2" source="4" target="5">
          <mxGeometry relative="1" as="geometry">
            <Array as="points" />
          </mxGeometry>
        </mxCell>
        <mxCell id="10" value="Receipt Generation" style="curved=1;startArrow=none;endArrow=block;exitX=0.5;exitY=1;entryX=0.37;entryY=0;" edge="1" parent="2" source="5" target="6">
          <mxGeometry relative="1" as="geometry">
            <Array as="points">
              <mxPoint x="207" y="399" />
            </Array>
          </mxGeometry>
        </mxCell>
        <mxCell id="11" value="Record Storage" style="curved=1;startArrow=none;endArrow=block;exitX=0.71;exitY=0;entryX=0.64;entryY=0.98;" edge="1" parent="2" source="6" target="3">
          <mxGeometry relative="1" as="geometry">
            <Array as="points">
              <mxPoint x="413" y="399" />
              <mxPoint x="413" y="126" />
            </Array>
          </mxGeometry>
        </mxCell>
      </root>
    </mxGraphModel>
  </diagram>
</mxfile>
